#!OML:ASF E:\emotionWalksFemale\Project 1\Capture day 1\Session 1\Female1.ASF
:FULLY-SPECIFIED
:DEGREES
1909
root 7.80229 15.2399 41.2542 6.49004 -158.419 -359.016
lowerback 10.8832 1.22184 -2.50727
upperback -3.11307 1.12022 -1.32769
thorax -9.48356 0.628669 -0.216875
lowerneck -3.29343 14.8091 6.35874
upperneck 5.88591 19.404 -0.463291
head 3.16361 9.74997 -0.34074
rclavicle -1.80894e-014 -9.54166e-015
rhumerus -38.1907 -1.23491 -73.8033
rradius 49.7881
rwrist 6.07047
rhand -9.86923 -56.0582
rfingers 7.12502
rthumb 16.1096 -805.409
lclavicle -1.80894e-014 -9.54166e-015
lhumerus -35.8853 13.7354 57.9905
lradius 33.7237
lwrist -13.7264
lhand 1.99715 -32.02
lfingers 7.12502
lthumb 27.5019 -4.00834
rfemur -24.6999 12.1199 24.5247
rtibia 39.9018
rfoot -21.7297 -1.50647
rtoes -36.9057
lfemur -18.5093 -21.1161 -19.1476
ltibia 29.6317
lfoot -23.6762 13.29
ltoes -19.4675
1910
root 7.79004 15.2414 41.2823 6.41936 -159.271 -358.904
lowerback 11.0279 1.19761 -2.41441
upperback -3.00414 1.1033 -1.30256
thorax -9.44672 0.616093 -0.240163
lowerneck -3.02694 15.0055 6.62582
upperneck 5.49194 19.713 -1.01552
head 3.08681 9.89374 -0.559938
rclavicle 4.17448e-015 2.14687e-014
rhumerus -38.5334 -2.17555 -72.8718
rradius 49.4556
rwrist 6.34362
rhand 5.08558 -69.3014
rfingers 7.12502
rthumb 30.4516 -983.194
lclavicle 4.17448e-015 2.14687e-014
lhumerus -34.9403 13.6766 57.7796
lradius 33.6586
lwrist -14.7489
lhand 0.560507 -31.4712
lfingers 7.12502
lthumb 26.1271 -3.24868
rfemur -24.7991 11.2792 24.9004
rtibia 40.3032
rfoot -21.8452 -4.14621
rtoes -36.4971
lfemur -18.4482 -20.6976 -19.1613
ltibia 29.6379
lfoot -23.8038 13.5232
ltoes -18.9074
1911
root 7.77805 15.2485 41.3103 6.37745 -160.14 -358.777
lowerback 11.1288 1.19965 -2.18814
upperback -2.91626 1.13382 -1.35448
thorax -9.40343 0.615662 -0.429369
lowerneck -2.69122 15.1619 7.02179
upperneck 5.0822 19.9659 -1.60228
head 3.01298 10.0121 -0.815528
rclavicle -1.11866e-013 4.77083e-015
rhumerus -38.9427 -3.35414 -71.9841
rradius 49.126
rwrist 6.83261
rhand 5.35974 -69.3752
rfingers 7.12502
rthumb 30.713 -983.169
lclavicle -1.11866e-013 4.77083e-015
lhumerus -33.9893 13.708 57.3175
lradius 33.6313
lwrist -15.2214
lhand 0.0442039 -31.4615
lfingers 7.12502
lthumb 25.6327 -3.16682
rfemur -24.8937 10.5394 25.2382
rtibia 40.6814
rfoot -22.8965 -5.57775
rtoes -36.4877
lfemur -18.3774 -20.4745 -19.1278
ltibia 29.6062
lfoot -24.1963 13.7511
ltoes -15.9669
1912
root 7.76577 15.2594 41.3382 6.33406 -161.151 -358.707
lowerback 11.3193 1.26015 -2.07589
upperback -2.86599 1.22747 -1.35409
thorax -9.45803 0.654638 -0.513787
lowerneck -2.51165 15.3357 7.21624
upperneck 4.91022 20.2332 -2.05389
head 3.01292 10.1386 -0.979054
rclavicle 2.25621e-014 -5.48646e-014
rhumerus -39.3131 -4.3936 -70.9753
rradius 48.685
rwrist 7.31043
rhand -9.2263 -57.3678
rfingers 7.12502
rthumb 16.7286 -806.667
lclavicle 2.25621e-014 -5.48646e-014
lhumerus -33.1245 14.0984 56.9318
lradius 33.6948
lwrist -15.6639
lhand -0.275911 -32.0264
lfingers 7.12502
lthumb 25.3261 -3.68798
rfemur -24.9702 9.95585 25.4688
rtibia 41.1559
rfoot -23.0826 -5.50789
rtoes -33.8082
lfemur -18.1805 -20.5003 -19.1441
ltibia 29.4232
lfoot -25.3783 13.9891
ltoes -11.5908
1913
root 7.75466 15.2668 41.3619 6.35179 -162.042 -358.685
lowerback 11.3732 1.28716 -2.10342
upperback -2.83388 1.26703 -1.28048
thorax -9.45704 0.678366 -0.427977
lowerneck -2.55331 15.5961 7.29038
upperneck 5.16796 20.588 -2.2191
head 3.15699 10.3125 -0.995925
rclavicle 2.90226e-014 5.56597e-015
rhumerus -39.6203 -5.14287 -69.9484
rradius 48.1087
rwrist 7.71591
rhand -8.7776 -57.4342
rfingers 7.12502
rthumb 17.1605 -806.696
lclavicle 2.90226e-014 5.56597e-015
lhumerus -32.3059 14.5461 56.6666
lradius 33.7641
lwrist -15.966
lhand -0.798092 -32.3446
lfingers 7.12502
lthumb 24.8257 -3.93622
rfemur -25.0258 9.34359 25.642
rtibia 41.6378
rfoot -23.4959 -7.64979
rtoes -34.1223
lfemur -18.0618 -19.9702 -19.2174
ltibia 29.2164
lfoot -26.068 13.7524
ltoes -7.56349
1914
root 7.73973 15.2728 41.3907 6.82707 -162.643 -359.308
lowerback 11.2474 1.23643 -2.55284
upperback -2.9101 1.11398 -1.42093
thorax -9.47347 0.622878 -0.293835
lowerneck -2.77876 15.9205 7.23111
upperneck 5.75589 20.9911 -1.95881
head 3.38151 10.5164 -0.83306
rclavicle 5.49143e-014 -2.22639e-014
rhumerus -40.0037 -5.78701 -69.0078
rradius 47.5153
rwrist 8.05735
rhand -8.25497 -58.5579
rfingers 7.12502
rthumb 17.6635 -807.776
lclavicle 5.49143e-014 -2.22639e-014
lhumerus -31.5575 14.7222 56.4729
lradius 33.9093
lwrist -15.9676
lhand -1.56613 -31.372
lfingers 7.12502
lthumb 24.0895 -2.86416
rfemur -25.4079 8.45702 25.0387
rtibia 42.1656
rfoot -23.1906 -8.8136
rtoes -30.1597
lfemur -18.3076 -18.9824 -19.945
ltibia 29.0343
lfoot -25.2807 13.547
ltoes -9.00325
1915
root 7.73142 15.277 41.4122 6.88019 -163.33 -359.365
lowerback 11.249 1.26309 -2.53631
upperback -2.88763 1.14832 -1.4572
thorax -9.44919 0.636609 -0.34808
lowerneck -2.77094 16.1333 7.21581
upperneck 5.94353 21.2715 -1.89299
head 3.44864 10.6568 -0.782296
rclavicle 5.63555e-014 5.08889e-014
rhumerus -40.4537 -6.54676 -68.0703
rradius 46.885
rwrist 8.45161
rhand -9.00499 -58.4095
rfingers 7.12502
rthumb 16.9416 -807.691
lclavicle 5.63555e-014 5.08889e-014
lhumerus -30.5069 15.3247 56.1999
lradius 33.9259
lwrist -15.6879
lhand -1.0968 -30.9718
lfingers 7.12502
lthumb 24.5394 -2.52431
rfemur -25.4548 7.85298 25.0717
rtibia 42.6366
rfoot -23.3822 -10.6906
rtoes -30.0053
lfemur -18.317 -18.2604 -20.1123
ltibia 28.9602
lfoot -23.7853 14.2085
ltoes -14.5595
1916
root 7.72524 15.2793 41.429 6.67851 -164.142 -359.026
lowerback 11.2666 1.368 -2.32607
upperback -2.80196 1.33634 -1.34976
thorax -9.36508 0.720325 -0.386581
lowerneck -2.55025 16.2464 7.45974
upperneck 5.88106 21.4506 -2.22887
head 3.47153 10.743 -0.920564
rclavicle -5.56597e-015 3.10104e-014
rhumerus -40.8886 -7.35991 -67.0953
rradius 46.0789
rwrist 9.13327
rhand -9.53361 -58.2043
rfingers 7.12502
rthumb 16.4327 -807.528
lclavicle -5.56597e-015 3.10104e-014
lhumerus -29.397 15.8363 56.1126
lradius 33.9288
lwrist -15.7163
lhand -1.82789 -31.1142
lfingers 7.12502
lthumb 23.8385 -2.57333
rfemur -25.2853 7.30665 25.5396
rtibia 43.0482
rfoot -23.3948 -12.1201
rtoes -29.2362
lfemur -18.1505 -17.7516 -19.8776
ltibia 28.9534
lfoot -23.5071 14.5949
ltoes -16.2053
1917
root 7.72013 15.2781 41.4449 6.58274 -164.894 -358.866
lowerback 11.281 1.48873 -2.24172
upperback -2.75182 1.51791 -1.29869
thorax -9.31986 0.805429 -0.413826
lowerneck -2.61142 16.3283 7.63035
upperneck 6.1614 21.5546 -2.31816
head 3.62156 10.7943 -0.938885
rclavicle 7.45443e-015 -7.15625e-015
rhumerus -41.4063 -8.18271 -66.1208
rradius 45.2924
rwrist 10.0656
rhand -8.39282 -58.6586
rfingers 7.12502
rthumb 17.5308 -807.888
lclavicle 7.45443e-015 -7.15625e-015
lhumerus -28.4143 15.5621 56.3155
lradius 34.3136
lwrist -14.9907
lhand -3.18871 -30.7793
lfingers 7.12502
lthumb 22.5328 -2.07413
rfemur -25.1149 6.63908 25.7678
rtibia 43.3029
rfoot -23.4833 -13.1001
rtoes -27.3804
lfemur -18.1147 -17.2048 -19.8081
ltibia 29.0886
lfoot -23.9436 14.4601
ltoes -14.6674
1918
root 7.71797 15.2781 41.4593 6.54665 -165.526 -358.755
lowerback 11.288 1.55267 -2.17606
upperback -2.75099 1.61934 -1.24803
thorax -9.32368 0.853086 -0.416472
lowerneck -2.69886 16.4385 7.73887
upperneck 6.54013 21.6873 -2.27995
head 3.78858 10.8617 -0.901743
rclavicle 3.47873e-015 3.57812e-014
rhumerus -41.9817 -8.74354 -65.2078
rradius 44.6907
rwrist 11.1391
rhand -7.3101 -58.4399
rfingers 7.12502
rthumb 18.5726 -807.573
lclavicle 3.47873e-015 3.57812e-014
lhumerus -27.5918 15.2037 56.5356
lradius 34.8952
lwrist -13.8646
lhand -4.04188 -30.7987
lfingers 7.12502
lthumb 21.7137 -1.99645
rfemur -24.8878 5.9349 25.9145
rtibia 43.448
rfoot -23.4926 -14.087
rtoes -24.5326
lfemur -18.16 -16.8824 -19.7425
ltibia 29.2503
lfoot -24.0077 14.6812
ltoes -13.6477
1919
root 7.71609 15.2814 41.4735 6.3918 -166.083 -358.418
lowerback 11.295 1.55043 -1.86187
upperback -2.73274 1.67889 -1.12717
thorax -9.30166 0.870103 -0.47552
lowerneck -2.38423 16.5734 7.88331
upperneck 6.48481 21.8938 -2.4357
head 3.76275 10.9653 -0.981221
rclavicle 5.24792e-014 5.56597e-015
rhumerus -42.4496 -9.00417 -64.4175
rradius 43.9965
rwrist 11.8963
rhand -7.99874 -57.6466
rfingers 7.12502
rthumb 17.91 -806.842
lclavicle 5.24792e-014 5.56597e-015
lhumerus -26.8801 15.113 56.6951
lradius 35.5844
lwrist -13.0093
lhand -4.75965 -31.1752
lfingers 7.12502
lthumb 21.0243 -2.29485
rfemur -24.5131 5.31081 26.2912
rtibia 43.5239
rfoot -23.3945 -15.286
rtoes -22.2267
lfemur -18.1069 -16.687 -19.4377
ltibia 29.3548
lfoot -24.0001 14.9795
ltoes -13.3373
1920
root 7.71219 15.2872 41.4874 6.23769 -166.671 -358.123
lowerback 11.2975 1.5688 -1.53532
upperback -2.71639 1.7646 -1.03146
thorax -9.27791 0.8979 -0.573318
lowerneck -1.99738 16.6963 8.00125
upperneck 6.32421 22.0908 -2.5951
head 3.68353 11.0648 -1.072
rclavicle -2.44505e-014 -1.11319e-014
rhumerus -42.8403 -9.30531 -63.646
rradius 43.1138
rwrist 12.2211
rhand -9.33735 -57.0503
rfingers 7.12502
rthumb 16.6217 -806.358
lclavicle -2.44505e-014 -1.11319e-014
lhumerus -26.2943 14.8494 56.8832
lradius 36.4167
lwrist -12.0345
lhand -5.89691 -31.5555
lfingers 7.12502
lthumb 19.9314 -2.5576
rfemur -24.114 4.71361 26.5332
rtibia 43.5551
rfoot -23.3212 -16.1023
rtoes -19.4816
lfemur -17.9886 -16.4374 -19.1866
ltibia 29.386
lfoot -24.1757 14.9734
ltoes -11.2277
1921
root 7.70772 15.2941 41.4984 6.22623 -167.19 -357.995
lowerback 11.1632 1.61488 -1.35925
upperback -2.69324 1.8623 -0.978212
thorax -9.17032 0.93811 -0.6294
lowerneck -1.93672 16.7593 8.17019
upperneck 6.39363 22.1887 -2.79367
head 3.75362 11.1118 -1.14466
rclavicle 3.85642e-014 7.95139e-015
rhumerus -43.1823 -9.93358 -62.7399
rradius 42.124
rwrist 12.7851
rhand -9.00634 -57.1918
rfingers 7.12502
rthumb 16.9403 -806.473
lclavicle 3.85642e-014 7.95139e-015
lhumerus -25.6124 14.6036 57.1281
lradius 37.1078
lwrist -10.9835
lhand -7.04587 -32.0168
lfingers 7.12502
lthumb 18.8267 -2.90794
rfemur -23.7798 4.04679 26.53
rtibia 43.5767
rfoot -23.2423 -16.6977
rtoes -15.9842
lfemur -17.942 -16.1946 -19.0878
ltibia 29.3395
lfoot -24.0511 15.1342
ltoes -10.9659
1922
root 7.70278 15.2993 41.5099 6.20601 -167.553 -357.971
lowerback 11.0751 1.631 -1.26918
upperback -2.65489 1.90421 -0.937017
thorax -9.07548 0.955482 -0.640263
lowerneck -1.90813 16.8061 8.35332
upperneck 6.45086 22.2648 -3.01681
head 3.83007 11.1473 -1.22571
rclavicle 1.62506e-014 -2.62396e-014
rhumerus -43.58 -10.3766 -61.8617
rradius 41.1952
rwrist 13.3773
rhand -8.31886 -56.9797
rfingers 7.12502
rthumb 17.602 -806.203
lclavicle 1.62506e-014 -2.62396e-014
lhumerus -24.7855 14.2736 57.4951
lradius 37.7181
lwrist -9.59898
lhand -8.08917 -32.4297
lfingers 7.12502
lthumb 17.823 -3.22649
rfemur -23.4317 3.45827 26.4066
rtibia 43.6302
rfoot -23.3887 -17.7076
rtoes -15.1836
lfemur -17.8236 -16.0167 -19.1115
ltibia 29.1939
lfoot -23.9959 15.3356
ltoes -10.842
1923
root 7.69891 15.3052 41.5244 6.06531 -167.837 -357.99
lowerback 11.1853 1.60792 -1.10449
upperback -2.63868 1.89459 -0.951588
thorax -9.11558 0.941276 -0.749828
lowerneck -1.63631 16.8977 8.54167
upperneck 6.43246 22.4108 -3.17765
head 3.83151 11.2221 -1.31081
rclavicle -1.81888e-014 3.73715e-014
rhumerus -44.1051 -10.5678 -61.2018
rradius 40.4091
rwrist 13.7823
rhand -8.688 -56.5496
rfingers 7.12502
rthumb 17.2468 -805.804
lclavicle -1.81888e-014 3.73715e-014
lhumerus -24.0688 13.6669 57.8621
lradius 38.5326
lwrist -8.00523
lhand -9.2646 -32.8423
lfingers 7.12502
lthumb 16.6917 -3.53997
rfemur -22.9769 2.99565 26.1922
rtibia 43.6984
rfoot -23.5873 -18.9441
rtoes -13.7055
lfemur -17.5435 -15.9245 -19.2029
ltibia 28.9768
lfoot -24.1278 15.3377
ltoes -10.3524
